<?xml version="1.0" encoding="UTF-8"?>
<svg viewBox="0 0 960 600" xmlns="http://www.w3.org/2000/svg" role="img" aria-labelledby="tau-package-dependencies-title tau-package-dependencies-desc">
  <title id="tau-package-dependencies-title">Tau 三层真实依赖关系</title>
  <desc id="tau-package-dependencies-desc">tau_coding 组合应用和适配器，tau_ai 实现由 tau_agent 拥有的 ModelProvider 协议。</desc>
  <defs>
    <style>@import url('https://fonts.googleapis.com/css2?family=Instrument+Serif:ital@0;1&amp;family=Geist:wght@400;500;600&amp;family=Geist+Mono:wght@400;500;600&amp;display=swap');</style>
    <marker id="tau-package-dependencies-arrow" markerWidth="8" markerHeight="6" refX="7" refY="3" orient="auto"><polygon points="0 0,8 3,0 6" fill="#4f5d75"/></marker>
    <marker id="tau-package-dependencies-arrow-accent" markerWidth="8" markerHeight="6" refX="7" refY="3" orient="auto"><polygon points="0 0,8 3,0 6" fill="#eb6c36"/></marker>
    <marker id="tau-package-dependencies-arrow-link" markerWidth="8" markerHeight="6" refX="7" refY="3" orient="auto"><polygon points="0 0,8 3,0 6" fill="#2e5aa8"/></marker>
    <marker id="tau-package-dependencies-arrow-open" markerWidth="8" markerHeight="6" refX="7" refY="3" orient="auto"><polyline points="0 0,8 3,0 6" fill="none" stroke="#4f5d75" stroke-width="1.2"/></marker>
  </defs>
  <rect width="100%" height="100%" fill="#f5f5f5"/>
  <path d="M 440,144 V 200 Q 440,208 432,208 H 168 Q 160,208 160,216 V 280" fill="none" stroke="#4f5d75" stroke-width="1.2" marker-end="url(#tau-package-dependencies-arrow)"/>
  <path d="M 480,144 L 480,280" fill="none" stroke="#eb6c36" stroke-width="1.4" marker-end="url(#tau-package-dependencies-arrow-accent)"/>
  <path d="M 240,312 L 360,312" fill="none" stroke="#4f5d75" stroke-width="1.2" marker-end="url(#tau-package-dependencies-arrow)"/>
  <path d="M 600,312 L 680,312" fill="none" stroke="#4f5d75" stroke-width="1.2" stroke-dasharray="5,4" marker-end="url(#tau-package-dependencies-arrow)"/>
  <rect x="584" y="288" width="112" height="12" rx="2" fill="#f5f5f5"/>
  <text x="640" y="296" fill="#4f5d75" font-size="8" font-family="'Geist Mono', 'Noto Sans Mono CJK SC', monospace" text-anchor="middle" letter-spacing=".06em">OWNS PROTOCOL</text>
  <rect x="360" y="80" width="240" height="64" rx="6" fill="#f5f5f5"/>
  <rect x="360" y="80" width="240" height="64" rx="6" fill="#ffffff" stroke="#2d3142" stroke-width="1"/>
  <rect x="368" y="88" width="40" height="12" rx="2" fill="transparent" stroke="#2d3142" stroke-opacity=".45" stroke-width=".8"/>
  <text x="388" y="97" fill="#2d3142" font-size="8" font-family="'Geist Mono', 'Noto Sans Mono CJK SC', monospace" text-anchor="middle" letter-spacing=".08em">APP</text>
  <text x="480" y="112" fill="#2d3142" font-size="12" font-weight="600" font-family="'Geist', 'Hiragino Sans', 'Noto Sans CJK SC', sans-serif" text-anchor="middle"><tspan x="480" dy="0">tau_coding</tspan></text>
  <text x="480" y="132" fill="#4f5d75" font-size="9" font-family="'Geist Mono', 'Noto Sans Mono CJK SC', monospace" text-anchor="middle">CLI · Session · tools · TUI</text>
  <rect x="80" y="280" width="160" height="64" rx="6" fill="#f5f5f5"/>
  <rect x="80" y="280" width="160" height="64" rx="6" fill="rgba(45,49,66,.03)" stroke="rgba(45,49,66,.30)" stroke-width="1"/>
  <rect x="88" y="288" width="40" height="12" rx="2" fill="transparent" stroke="#7a8399" stroke-opacity=".45" stroke-width=".8"/>
  <text x="108" y="297" fill="#7a8399" font-size="8" font-family="'Geist Mono', 'Noto Sans Mono CJK SC', monospace" text-anchor="middle" letter-spacing=".08em">ADAPT</text>
  <text x="160" y="312" fill="#2d3142" font-size="12" font-weight="600" font-family="'Geist', 'Hiragino Sans', 'Noto Sans CJK SC', sans-serif" text-anchor="middle"><tspan x="160" dy="0">tau_ai</tspan></text>
  <text x="160" y="332" fill="#4f5d75" font-size="9" font-family="'Geist Mono', 'Noto Sans Mono CJK SC', monospace" text-anchor="middle">Provider implementations</text>
  <rect x="360" y="280" width="240" height="64" rx="6" fill="#f5f5f5"/>
  <rect x="360" y="280" width="240" height="64" rx="6" fill="rgba(235,108,54,.08)" stroke="#eb6c36" stroke-width="1"/>
  <rect x="368" y="288" width="40" height="12" rx="2" fill="transparent" stroke="#eb6c36" stroke-opacity=".45" stroke-width=".8"/>
  <text x="388" y="297" fill="#eb6c36" font-size="8" font-family="'Geist Mono', 'Noto Sans Mono CJK SC', monospace" text-anchor="middle" letter-spacing=".08em">CORE</text>
  <text x="480" y="312" fill="#2d3142" font-size="12" font-weight="600" font-family="'Geist', 'Hiragino Sans', 'Noto Sans CJK SC', sans-serif" text-anchor="middle"><tspan x="480" dy="0">tau_agent</tspan></text>
  <text x="480" y="332" fill="#4f5d75" font-size="9" font-family="'Geist Mono', 'Noto Sans Mono CJK SC', monospace" text-anchor="middle">messages · loop · harness</text>
  <rect x="680" y="280" width="200" height="64" rx="6" fill="#f5f5f5"/>
  <rect x="680" y="280" width="200" height="64" rx="6" fill="rgba(45,49,66,.02)" stroke="rgba(45,49,66,.22)" stroke-width="1" stroke-dasharray="4,3"/>
  <rect x="688" y="288" width="40" height="12" rx="2" fill="transparent" stroke="#7a8399" stroke-opacity=".45" stroke-width=".8"/>
  <text x="708" y="297" fill="#7a8399" font-size="8" font-family="'Geist Mono', 'Noto Sans Mono CJK SC', monospace" text-anchor="middle" letter-spacing=".08em">PORT</text>
  <text x="780" y="312" fill="#2d3142" font-size="12" font-weight="600" font-family="'Geist', 'Hiragino Sans', 'Noto Sans CJK SC', sans-serif" text-anchor="middle"><tspan x="780" dy="0">依赖倒置边界</tspan></text>
  <text x="780" y="332" fill="#4f5d75" font-size="9" font-family="'Geist Mono', 'Noto Sans Mono CJK SC', monospace" text-anchor="middle">ModelProvider Protocol</text>
  <line x1="40" y1="536" x2="920" y2="536" stroke="rgba(45,49,66,.12)" stroke-width=".8"/>
  <text x="40" y="556" fill="#4f5d75" font-size="8" font-family="'Geist Mono', 'Noto Sans Mono CJK SC', monospace" letter-spacing=".18em">LEGEND</text>
  <rect x="140" y="548" width="16" height="12" rx="2" fill="#ffffff" stroke="#2d3142"/>
  <text x="164" y="558" fill="#4f5d75" font-size="9" font-family="'Geist', 'Hiragino Sans', 'Noto Sans CJK SC', sans-serif">应用层</text>
  <rect x="272" y="548" width="16" height="12" rx="2" fill="rgba(235,108,54,.08)" stroke="#eb6c36"/>
  <text x="296" y="558" fill="#4f5d75" font-size="9" font-family="'Geist', 'Hiragino Sans', 'Noto Sans CJK SC', sans-serif">核心层</text>
  <line x1="404" y1="556" x2="432" y2="556" stroke="#4f5d75" stroke-width="1" stroke-dasharray="5,4"/>
  <text x="440" y="558" fill="#4f5d75" font-size="9" font-family="'Geist', 'Hiragino Sans', 'Noto Sans CJK SC', sans-serif">抽象边界</text>
</svg>
